<?xml version="1.0" encoding="utf-8"?>
<!-- Generator: Adobe Illustrator 16.0.0, SVG Export Plug-In . SVG Version: 6.00 Build 0)  -->
<!DOCTYPE svg PUBLIC "-//W3C//DTD SVG 1.1//EN" "http://www.w3.org/Graphics/SVG/1.1/DTD/svg11.dtd">
<svg version="1.1" id="Capa_1" xmlns="http://www.w3.org/2000/svg" xmlns:xlink="http://www.w3.org/1999/xlink" x="0px" y="0px"
	 width="22px" height="22px" viewBox="0 0 56.691 56.689" enable-background="new 0 0 56.691 56.689" xml:space="preserve">
<path fill="#FFFFFF" d="M52.107,6.529c-2.805-2.774-6.846-4.554-11.098-4.554c-2.502,0-4.854,0.572-7.115,1.719
	c-2.262,1.146-4.102,2.714-5.549,4.704c-1.447-1.99-3.287-3.558-5.548-4.704c-2.262-1.146-4.614-1.719-7.116-1.719
	c-4.252,0-8.292,1.779-11.097,4.554C1.779,9.302,0,13.343,0,17.595c0,2.925,0.622,5.764,1.387,7.9
	c0.38,1.06,0.955,2.208,1.719,3.378c0.773,1.183,1.478,2.171,2.081,2.954c0.603,0.784,1.462,1.765,2.623,2.895
	c1.161,1.132,2.111,2.021,2.804,2.654c0.693,0.634,1.749,1.568,3.136,2.774c1.597,1.388,2.737,2.421,3.468,3.075
	c0.716,0.642,1.749,1.629,3.105,2.926c2.745,2.622,4.758,5.039,6.664,7.81c0.356,0.517,0.814,0.754,1.357,0.754
	c0.573,0,1.069-0.231,1.417-0.754c1.221-1.83,2.632-3.702,4.282-5.549c1.667-1.863,3.054-3.309,4.161-4.342
	c1.123-1.048,2.738-2.509,4.825-4.372c1.29-1.153,2.321-2.021,3.017-2.653c0.693-0.634,1.598-1.509,2.713-2.624
	c1.116-1.116,1.998-2.075,2.624-2.865c0.641-0.808,1.317-1.785,2.08-2.954c1.56-2.389,2.241-4.28,2.804-6.936
	c0.281-1.325,0.423-2.685,0.423-4.071C56.691,13.343,54.912,9.302,52.107,6.529z M53.072,20.671
	c-0.581,3.346-2.328,6.627-5.246,9.86c-1.274,1.41-3.612,3.656-7.027,6.694c-1.771,1.576-3.195,2.865-4.312,3.89
	c-1.085,0.996-2.42,2.344-4.011,4.041c-1.576,1.681-2.955,3.347-4.131,4.975c-1.236-1.598-2.661-3.219-4.282-4.885
	c-1.636-1.681-2.895-2.955-3.83-3.8c-0.935-0.844-2.359-2.103-4.312-3.829l-2.081-1.84l-1.9-1.719
	c-0.823-0.744-1.456-1.35-1.869-1.809c-0.4-0.445-0.935-1.025-1.598-1.749c-0.663-0.724-1.173-1.358-1.508-1.87
	c-0.691-1.057-1.866-2.634-2.292-3.95L3.981,22.54c-0.506-1.561-0.663-3.166-0.663-4.945c0-3.377,1.206-6.272,3.618-8.654
	c2.443-2.412,5.338-3.618,8.745-3.618c2.382,0,4.583,0.633,6.604,1.93c2.021,1.296,3.578,3.005,4.583,5.156
	c0.292,0.624,0.784,0.935,1.478,0.935s1.229-0.29,1.538-0.935c1.019-2.13,2.473-3.86,4.493-5.156c2.021-1.297,4.251-1.93,6.634-1.93
	c3.408,0,6.303,1.206,8.715,3.588s3.619,5.277,3.619,8.685C53.343,18.65,53.246,19.674,53.072,20.671z"/>
<path fill="#FFFFFF" stroke="#FFFFFF" stroke-width="2" stroke-miterlimit="10" d="M5.883,17.628
	c1.957-6.192,7.404-9.983,12.181-8.474"/>
</svg>
