<?xml version="1.0" encoding="utf-8"?>
<!-- Generator: Adobe Illustrator 16.0.0, SVG Export Plug-In . SVG Version: 6.00 Build 0)  -->
<!DOCTYPE svg PUBLIC "-//W3C//DTD SVG 1.1//EN" "http://www.w3.org/Graphics/SVG/1.1/DTD/svg11.dtd">
<svg version="1.1" id="Capa_1" xmlns="http://www.w3.org/2000/svg" xmlns:xlink="http://www.w3.org/1999/xlink" x="0px" y="0px"
	 width="16px" height="22px" viewBox="0 0 23.48 31.693" enable-background="new 0 0 23.48 31.693" xml:space="preserve">
<path fill="#FBFEFF" d="M23.019,3.842c-9.267,0-10.835-3.518-10.85-3.551C12.102,0.119,11.935,0.004,11.743,0c0,0-0.002,0-0.006,0
	c-0.185,0-0.354,0.115-0.426,0.283C11.298,0.32,9.695,3.842,0.462,3.842C0.205,3.842,0,4.051,0,4.303v15.764
	c0,6.453,11.085,11.383,11.554,11.59c0.062,0.027,0.122,0.037,0.188,0.037c0.062,0,0.126-0.01,0.184-0.037
	c0.474-0.207,11.557-5.137,11.557-11.59V4.303C23.48,4.051,23.275,3.842,23.019,3.842z M20.933,19.15
	c0,5.049-8.679,8.912-9.048,9.072c-0.046,0.022-0.098,0.03-0.145,0.03c-0.051,0-0.098-0.008-0.148-0.03
	c-0.364-0.16-9.043-4.023-9.043-9.072V6.811c0-0.199,0.161-0.363,0.361-0.363c7.23,0,8.481-2.756,8.495-2.783
	c0.057-0.133,0.188-0.223,0.334-0.223c0.002,0,0.004,0,0.004,0c0.149,0.002,0.279,0.092,0.334,0.229
	c0.011,0.025,1.239,2.777,8.494,2.777c0.201,0,0.361,0.164,0.361,0.363V19.15L20.933,19.15z M19.202,19.016
	c0,4.102-7.045,7.233-7.346,7.362c-0.036,0.021-0.079,0.027-0.117,0.027c-0.041,0-0.117-20.141,0-20.141h0.002
	c0.121,0.002,0.229,0.073,0.271,0.186c0.008,0.021,1.006,2.254,6.895,2.254c0.164,0,0.295,0.133,0.295,0.293V19.016z"/>
</svg>
