<?xml version="1.0" encoding="utf-8"?>
<!-- Generator: Adobe Illustrator 16.0.0, SVG Export Plug-In . SVG Version: 6.00 Build 0)  -->
<!DOCTYPE svg PUBLIC "-//W3C//DTD SVG 1.1//EN" "http://www.w3.org/Graphics/SVG/1.1/DTD/svg11.dtd">
<svg version="1.1" id="Layer_1" xmlns="http://www.w3.org/2000/svg" xmlns:xlink="http://www.w3.org/1999/xlink" x="0px" y="0px"
	 width="22px" height="22px" viewBox="0 0 50 50" enable-background="new 0 0 50 50" xml:space="preserve">
<path fill="#FFFFFF" d="M29.749,33.617c0.278,0.377,0.202,0.91-0.173,1.192c-2.514,1.88-4.941,2.551-7.13,2.551
	c-5.265,0-9.097-3.872-9.149-3.932c-0.325-0.338-0.319-0.877,0.02-1.201c0.335-0.327,0.877-0.316,1.199,0.017
	c0.269,0.276,6.683,6.717,14.039,1.201C28.932,33.164,29.467,33.242,29.749,33.617z M40.206,24.172
	c-2.155-0.236-3.915,0.231-5.236,1.399c-2.252,1.99-2.318,5.264-2.318,5.403c-0.007,0.466,0.368,0.85,0.837,0.856
	c0.003,0,0.01,0,0.013,0c0.462,0,0.841-0.372,0.851-0.834c0-0.028,0.066-2.673,1.75-4.156c0.95-0.831,2.278-1.161,3.915-0.976
	c0.485,0.039,0.891-0.286,0.94-0.75C41.01,24.646,40.675,24.223,40.206,24.172z M9.522,33.146c-1.394-0.359-2.812-0.891-3.394-1.258
	c0.101-0.373,0.292-0.873,0.605-1.158c0.349-0.314,0.381-0.853,0.063-1.201s-0.854-0.382-1.202-0.062
	c-1.013,0.914-1.219,2.453-1.24,2.627c-0.027,0.213,0.033,0.427,0.159,0.6c0.745,1.028,3.451,1.809,4.583,2.099
	c0.073,0.021,0.143,0.026,0.213,0.026c0.381,0,0.724-0.252,0.823-0.637C10.253,33.724,9.978,33.263,9.522,33.146z M48.864,29.895
	c-0.422,8.953-6.393,12.772-19.959,12.772c-0.003,0-0.003,0-0.003,0c-2.408,0-5.101-0.13-8.009-0.38
	c-11.351-0.981-19.181-8.44-19.508-8.756c-0.188-0.181-0.282-0.443-0.255-0.704C2.277,22.196,14.378,8.728,14.894,8.159
	c0.737-0.589,1.763-0.825,3.25-0.825c1.896,0,3.906,0.384,3.992,0.4c0.146,0.028,0.283,0.095,0.395,0.192
	c2.729,2.369,2.398,5.3,2.38,5.424c-0.023,0.198-0.115,0.379-0.262,0.516l-2.417,2.257c-0.157,0.149-0.365,0.23-0.582,0.23h-4.188
	c-2.437,4.22-3.295,7.267-3.537,9.291c2.003-1.709,4.697-2.687,7.562-2.687c3.61,0,6.88,1.529,8.876,4.03
	c1.226-3.844,4.832-6.608,9.026-6.608c2.63,0,5.181,1.089,6.993,2.991C48.097,25.165,48.98,27.482,48.864,29.895z M47.167,29.816
	c0.093-1.944-0.624-3.817-2.013-5.274c-1.494-1.566-3.597-2.463-5.769-2.463c-4.078,0-7.481,3.191-7.754,7.265
	c-0.026,0.389-0.313,0.711-0.694,0.78c-0.392,0.057-0.767-0.13-0.927-0.485c-1.357-2.979-4.779-4.984-8.528-4.984
	c-3.168,0-6.067,1.375-7.757,3.675c-0.206,0.284-0.568,0.407-0.907,0.32c-0.336-0.095-0.589-0.384-0.622-0.732
	c-0.248-2.315,0.25-6.423,4.042-12.848c0.153-0.259,0.432-0.418,0.734-0.418h4.341l1.92-1.792c-0.01-0.615-0.192-2.137-1.651-3.5
	c-0.557-0.096-2.063-0.328-3.44-0.328c-1.508,0-1.989,0.281-2.098,0.368C16.031,9.434,4.248,22.55,2.874,32.583
	c1.531,1.352,8.638,7.188,18.168,8.009c2.862,0.249,5.506,0.375,7.864,0.375C44.49,40.967,46.895,35.608,47.167,29.816z"/>
</svg>
