<?xml version="1.0" encoding="utf-8"?>
<!-- Generator: Adobe Illustrator 16.0.0, SVG Export Plug-In . SVG Version: 6.00 Build 0)  -->
<!DOCTYPE svg PUBLIC "-//W3C//DTD SVG 1.1//EN" "http://www.w3.org/Graphics/SVG/1.1/DTD/svg11.dtd">
<svg version="1.1" id="Layer_6" xmlns="http://www.w3.org/2000/svg" xmlns:xlink="http://www.w3.org/1999/xlink" x="0px" y="0px"
	 width="22px" height="22px" viewBox="0 0 100 100" enable-background="new 0 0 100 100" xml:space="preserve">
<path fill="#FFFFFF" d="M96.348,87.723c-1.476-1.475-3.52-2.033-5.427-1.679c-1.532-2.74-4.087-6.041-7.318-9.271
	c-2.797-2.797-5.646-5.086-8.14-6.646c2.914-3.327,5.005-6.537,5.883-8.938c1.218,0.439,2.411,0.335,3.146-0.4
	c1.188-1.189,0.735-3.574-1.012-5.321c-1.751-1.752-4.135-2.206-5.324-1.015c-0.737,0.736-0.84,1.929-0.4,3.146
	c-2.226,0.813-5.147,2.671-8.215,5.259L13.449,3.782L1.867,1.876l2.122,11.365l58.72,56.48c-2.504,2.997-4.304,5.845-5.102,8.024
	c-1.217-0.44-2.41-0.335-3.146,0.401c-1.191,1.188-0.736,3.572,1.015,5.321c1.748,1.749,4.132,2.203,5.32,1.014
	c0.738-0.737,0.841-1.93,0.402-3.146c2.399-0.88,5.61-2.97,8.937-5.884c1.562,2.495,3.85,5.344,6.647,8.14
	c3.23,3.23,6.529,5.785,9.271,7.318c-0.354,1.909,0.204,3.951,1.679,5.427c2.379,2.38,6.237,2.38,8.617,0
	C98.729,93.96,98.729,90.103,96.348,87.723z M6.238,13.767l-1.26-6.281l3.235,4.305l54.031,54.032L6.238,13.767z"/>
</svg>
